<svg viewBox="-16 -32 880 192" width="880" height="192" xmlns="http://www.w3.org/2000/svg"><desc>Generated with https://github.com/Platane/snk</desc><style>@keyframes c0{69.56%{fill:var(--c4)}69.58%,to{fill:var(--ce)}}@keyframes c1{69.07%{fill:var(--c3)}69.09%,to{fill:var(--ce)}}@keyframes c2{1.44%{fill:var(--c1)}1.46%,to{fill:var(--ce)}}@keyframes c3{1.92%{fill:var(--c1)}1.94%,to{fill:var(--ce)}}@keyframes c4{8.2%{fill:var(--c1)}8.22%,to{fill:var(--ce)}}@keyframes c5{4.34%{fill:var(--c1)}4.36%,to{fill:var(--ce)}}@keyframes c6{6.27%{fill:var(--c1)}6.29%,to{fill:var(--ce)}}@keyframes c7{14.97%{fill:var(--c1)}14.99%,to{fill:var(--ce)}}@keyframes c8{49.27%{fill:var(--c2)}49.29%,to{fill:var(--ce)}}@keyframes c9{89.36%{fill:var(--c4)}89.38%,to{fill:var(--ce)}}@keyframes ca{17.38%{fill:var(--c1)}17.4%,to{fill:var(--ce)}}@keyframes cb{79.22%{fill:var(--c4)}79.24%,to{fill:var(--ce)}}@keyframes cc{79.7%{fill:var(--c4)}79.72%,to{fill:var(--ce)}}@keyframes cd{51.2%{fill:var(--c3)}51.22%,to{fill:var(--ce)}}@keyframes ce{19.8%{fill:var(--c1)}19.82%,to{fill:var(--ce)}}@keyframes cf{46.37%{fill:var(--c2)}46.39%,to{fill:var(--ce)}}@keyframes cg{43.47%{fill:var(--c2)}43.49%,to{fill:var(--ce)}}@keyframes ch{42.99%{fill:var(--c2)}43.01%,to{fill:var(--ce)}}@keyframes ci{42.5%{fill:var(--c1)}42.52%,to{fill:var(--ce)}}@keyframes cj{44.92%{fill:var(--c2)}44.94%,to{fill:var(--ce)}}@keyframes ck{84.53%{fill:var(--c4)}84.55%,to{fill:var(--ce)}}@keyframes cl{83.56%{fill:var(--c4)}83.58%,to{fill:var(--ce)}}@keyframes cm{54.1%{fill:var(--c3)}54.12%,to{fill:var(--ce)}}@keyframes cn{82.6%{fill:var(--c4)}82.62%,to{fill:var(--ce)}}@keyframes co{56.03%{fill:var(--c3)}56.05%,to{fill:var(--ce)}}@keyframes cp{24.63%{fill:var(--c1)}24.65%,to{fill:var(--ce)}}@keyframes cq{28.49%{fill:var(--c1)}28.51%,to{fill:var(--ce)}}@keyframes cr{85.5%{fill:var(--c4)}85.52%,to{fill:var(--ce)}}@keyframes cs{27.53%{fill:var(--c1)}27.55%,to{fill:var(--ce)}}@keyframes ct{26.56%{fill:var(--c1)}26.58%,to{fill:var(--ce)}}@keyframes cu{25.59%{fill:var(--c1)}25.61%,to{fill:var(--ce)}}@keyframes cv{33.81%{fill:var(--c1)}33.83%,to{fill:var(--ce)}}@keyframes cw{31.39%{fill:var(--c1)}31.41%,to{fill:var(--ce)}}@keyframes cx{31.87%{fill:var(--c1)}31.89%,to{fill:var(--ce)}}@keyframes u0{1.44%{transform:scale(0,1)}1.46%,1.92%{transform:scale(.06,1)}1.94%,4.34%{transform:scale(.12,1)}4.36%,6.27%{transform:scale(.18,1)}6.29%,8.2%{transform:scale(.24,1)}14.97%,8.22%{transform:scale(.29,1)}14.99%,17.38%{transform:scale(.35,1)}17.4%,19.8%{transform:scale(.41,1)}19.82%,24.63%{transform:scale(.47,1)}24.65%,25.59%{transform:scale(.53,1)}25.61%,26.56%{transform:scale(.59,1)}26.58%,27.53%{transform:scale(.65,1)}27.55%,28.49%{transform:scale(.71,1)}28.51%,31.39%{transform:scale(.76,1)}31.41%,31.87%{transform:scale(.82,1)}31.89%,33.81%{transform:scale(.88,1)}33.83%,42.5%{transform:scale(.94,1)}42.52%,to{transform:scale(1,1)}}@keyframes u1{42.99%{transform:scale(0,1)}43.01%,43.47%{transform:scale(.2,1)}43.49%,44.92%{transform:scale(.4,1)}44.94%,46.37%{transform:scale(.6,1)}46.39%,49.27%{transform:scale(.8,1)}49.29%,to{transform:scale(1,1)}}@keyframes u2{51.2%{transform:scale(0,1)}51.22%,54.1%{transform:scale(.25,1)}54.12%,56.03%{transform:scale(.5,1)}56.05%,69.07%{transform:scale(.75,1)}69.09%,to{transform:scale(1,1)}}@keyframes u3{69.56%{transform:scale(0,1)}69.58%,79.22%{transform:scale(.13,1)}79.24%,79.7%{transform:scale(.25,1)}79.72%,82.6%{transform:scale(.38,1)}82.62%,83.56%{transform:scale(.5,1)}83.58%,84.53%{transform:scale(.63,1)}84.55%,85.5%{transform:scale(.75,1)}85.52%,89.36%{transform:scale(.88,1)}89.38%,to{transform:scale(1,1)}}@keyframes s0{0%,99.52%{transform:translate(0,-16px)}.48%{transform:translate(0,0)}.97%{transform:translate(16px,0)}1.93%{transform:translate(16px,32px)}5.31%{transform:translate(128px,32px)}6.28%{transform:translate(128px,0)}8.21%{transform:translate(64px,0)}8.7%{transform:translate(64px,16px)}13.53%{transform:translate(224px,16px)}14.98%{transform:translate(224px,64px)}17.87%,46.86%{transform:translate(320px,64px)}18.36%{transform:translate(320px,48px)}18.84%,45.89%{transform:translate(336px,48px)}19.81%{transform:translate(336px,16px)}20.29%{transform:translate(320px,16px)}20.77%,41.06%{transform:translate(320px,32px)}21.74%,43.96%{transform:translate(352px,32px)}22.71%{transform:translate(352px,64px)}23.19%,57%{transform:translate(368px,64px)}24.15%{transform:translate(368px,96px)}25.6%{transform:translate(416px,96px)}27.54%{transform:translate(416px,32px)}28.02%{transform:translate(400px,32px)}28.5%,54.59%{transform:translate(400px,48px)}31.4%{transform:translate(496px,48px)}31.88%{transform:translate(496px,64px)}32.37%{transform:translate(480px,64px)}34.78%{transform:translate(480px,-16px)}39.61%{transform:translate(320px,-16px)}42.51%,44.44%{transform:translate(368px,32px)}43%{transform:translate(368px,16px)}43.48%{transform:translate(352px,16px)}44.93%,53.62%{transform:translate(368px,48px)}46.38%{transform:translate(336px,64px)}48.79%{transform:translate(320px,0)}49.28%{transform:translate(304px,0)}49.76%{transform:translate(304px,-16px)}50.72%{transform:translate(336px,-16px)}51.21%{transform:translate(336px,0)}52.17%{transform:translate(368px,0)}55.56%{transform:translate(400px,80px)}56.52%{transform:translate(368px,80px)}67.63%{transform:translate(16px,64px)}68.6%{transform:translate(16px,96px)}69.08%{transform:translate(0,96px)}69.57%{transform:translate(0,80px)}79.23%{transform:translate(320px,80px)}79.71%{transform:translate(320px,96px)}81.64%{transform:translate(384px,96px)}84.54%{transform:translate(384px,0)}85.51%{transform:translate(416px,0)}85.99%{transform:translate(416px,16px)}96.14%{transform:translate(80px,16px)}97.1%{transform:translate(80px,-16px)}}@keyframes s1{0%,99.52%{transform:translate(16px,-16px)}.48%{transform:translate(0,-16px)}.97%{transform:translate(0,0)}1.45%{transform:translate(16px,0)}2.42%{transform:translate(16px,32px)}5.8%{transform:translate(128px,32px)}6.76%{transform:translate(128px,0)}8.7%{transform:translate(64px,0)}9.18%{transform:translate(64px,16px)}14.01%{transform:translate(224px,16px)}15.46%{transform:translate(224px,64px)}18.36%,47.34%{transform:translate(320px,64px)}18.84%{transform:translate(320px,48px)}19.32%,46.38%{transform:translate(336px,48px)}20.29%{transform:translate(336px,16px)}20.77%{transform:translate(320px,16px)}21.26%,41.55%{transform:translate(320px,32px)}22.22%,44.44%{transform:translate(352px,32px)}23.19%{transform:translate(352px,64px)}23.67%,57.49%{transform:translate(368px,64px)}24.64%{transform:translate(368px,96px)}26.09%{transform:translate(416px,96px)}28.02%{transform:translate(416px,32px)}28.5%{transform:translate(400px,32px)}28.99%,55.07%{transform:translate(400px,48px)}31.88%{transform:translate(496px,48px)}32.37%{transform:translate(496px,64px)}32.85%{transform:translate(480px,64px)}35.27%{transform:translate(480px,-16px)}40.1%{transform:translate(320px,-16px)}43%,44.93%{transform:translate(368px,32px)}43.48%{transform:translate(368px,16px)}43.96%{transform:translate(352px,16px)}45.41%,54.11%{transform:translate(368px,48px)}46.86%{transform:translate(336px,64px)}49.28%{transform:translate(320px,0)}49.76%{transform:translate(304px,0)}50.24%{transform:translate(304px,-16px)}51.21%{transform:translate(336px,-16px)}51.69%{transform:translate(336px,0)}52.66%{transform:translate(368px,0)}56.04%{transform:translate(400px,80px)}57%{transform:translate(368px,80px)}68.12%{transform:translate(16px,64px)}69.08%{transform:translate(16px,96px)}69.57%{transform:translate(0,96px)}70.05%{transform:translate(0,80px)}79.71%{transform:translate(320px,80px)}80.19%{transform:translate(320px,96px)}82.13%{transform:translate(384px,96px)}85.02%{transform:translate(384px,0)}85.99%{transform:translate(416px,0)}86.47%{transform:translate(416px,16px)}96.62%{transform:translate(80px,16px)}97.58%{transform:translate(80px,-16px)}}@keyframes s2{0%,99.52%{transform:translate(32px,-16px)}.97%{transform:translate(0,-16px)}1.45%{transform:translate(0,0)}1.93%{transform:translate(16px,0)}2.9%{transform:translate(16px,32px)}6.28%{transform:translate(128px,32px)}7.25%{transform:translate(128px,0)}9.18%{transform:translate(64px,0)}9.66%{transform:translate(64px,16px)}14.49%{transform:translate(224px,16px)}15.94%{transform:translate(224px,64px)}18.84%,47.83%{transform:translate(320px,64px)}19.32%{transform:translate(320px,48px)}19.81%,46.86%{transform:translate(336px,48px)}20.77%{transform:translate(336px,16px)}21.26%{transform:translate(320px,16px)}21.74%,42.03%{transform:translate(320px,32px)}22.71%,44.93%{transform:translate(352px,32px)}23.67%{transform:translate(352px,64px)}24.15%,57.97%{transform:translate(368px,64px)}25.12%{transform:translate(368px,96px)}26.57%{transform:translate(416px,96px)}28.5%{transform:translate(416px,32px)}28.99%{transform:translate(400px,32px)}29.47%,55.56%{transform:translate(400px,48px)}32.37%{transform:translate(496px,48px)}32.85%{transform:translate(496px,64px)}33.33%{transform:translate(480px,64px)}35.75%{transform:translate(480px,-16px)}40.58%{transform:translate(320px,-16px)}43.48%,45.41%{transform:translate(368px,32px)}43.96%{transform:translate(368px,16px)}44.44%{transform:translate(352px,16px)}45.89%,54.59%{transform:translate(368px,48px)}47.34%{transform:translate(336px,64px)}49.76%{transform:translate(320px,0)}50.24%{transform:translate(304px,0)}50.72%{transform:translate(304px,-16px)}51.69%{transform:translate(336px,-16px)}52.17%{transform:translate(336px,0)}53.14%{transform:translate(368px,0)}56.52%{transform:translate(400px,80px)}57.49%{transform:translate(368px,80px)}68.6%{transform:translate(16px,64px)}69.57%{transform:translate(16px,96px)}70.05%{transform:translate(0,96px)}70.53%{transform:translate(0,80px)}80.19%{transform:translate(320px,80px)}80.68%{transform:translate(320px,96px)}82.61%{transform:translate(384px,96px)}85.51%{transform:translate(384px,0)}86.47%{transform:translate(416px,0)}86.96%{transform:translate(416px,16px)}97.1%{transform:translate(80px,16px)}98.07%{transform:translate(80px,-16px)}}@keyframes s3{0%,99.52%{transform:translate(48px,-16px)}1.45%{transform:translate(0,-16px)}1.93%{transform:translate(0,0)}2.42%{transform:translate(16px,0)}3.38%{transform:translate(16px,32px)}6.76%{transform:translate(128px,32px)}7.73%{transform:translate(128px,0)}9.66%{transform:translate(64px,0)}10.14%{transform:translate(64px,16px)}14.98%{transform:translate(224px,16px)}16.43%{transform:translate(224px,64px)}19.32%,48.31%{transform:translate(320px,64px)}19.81%{transform:translate(320px,48px)}20.29%,47.34%{transform:translate(336px,48px)}21.26%{transform:translate(336px,16px)}21.74%{transform:translate(320px,16px)}22.22%,42.51%{transform:translate(320px,32px)}23.19%,45.41%{transform:translate(352px,32px)}24.15%{transform:translate(352px,64px)}24.64%,58.45%{transform:translate(368px,64px)}25.6%{transform:translate(368px,96px)}27.05%{transform:translate(416px,96px)}28.99%{transform:translate(416px,32px)}29.47%{transform:translate(400px,32px)}29.95%,56.04%{transform:translate(400px,48px)}32.85%{transform:translate(496px,48px)}33.33%{transform:translate(496px,64px)}33.82%{transform:translate(480px,64px)}36.23%{transform:translate(480px,-16px)}41.06%{transform:translate(320px,-16px)}43.96%,45.89%{transform:translate(368px,32px)}44.44%{transform:translate(368px,16px)}44.93%{transform:translate(352px,16px)}46.38%,55.07%{transform:translate(368px,48px)}47.83%{transform:translate(336px,64px)}50.24%{transform:translate(320px,0)}50.72%{transform:translate(304px,0)}51.21%{transform:translate(304px,-16px)}52.17%{transform:translate(336px,-16px)}52.66%{transform:translate(336px,0)}53.62%{transform:translate(368px,0)}57%{transform:translate(400px,80px)}57.97%{transform:translate(368px,80px)}69.08%{transform:translate(16px,64px)}70.05%{transform:translate(16px,96px)}70.53%{transform:translate(0,96px)}71.01%{transform:translate(0,80px)}80.68%{transform:translate(320px,80px)}81.16%{transform:translate(320px,96px)}83.09%{transform:translate(384px,96px)}85.99%{transform:translate(384px,0)}86.96%{transform:translate(416px,0)}87.44%{transform:translate(416px,16px)}97.58%{transform:translate(80px,16px)}98.55%{transform:translate(80px,-16px)}}:root{--cb:#1b1f230a;--cs:purple;--ce:#ebedf0;--c0:#ebedf0;--c1:#9be9a8;--c2:#40c463;--c3:#30a14e;--c4:#216e39}@media (prefers-color-scheme:dark){:root{--cb:#1b1f230a;--cs:purple;--ce:#161b22;--c1:#01311f;--c2:#034525;--c3:#0f6d31;--c4:#00c647}}.c{shape-rendering:geometricPrecision;fill:var(--ce);stroke-width:1px;stroke:var(--cb);animation:none 20700ms linear infinite}.c.c0{fill:var(--c4);animation-name:c0}.c.c1{fill:var(--c3);animation-name:c1}.c.c2,.c.c3,.c.c4{fill:var(--c1);animation-name:c2}.c.c3,.c.c4{animation-name:c3}.c.c4{animation-name:c4}.c.c5,.c.c6,.c.c7{fill:var(--c1);animation-name:c5}.c.c6,.c.c7{animation-name:c6}.c.c7{animation-name:c7}.c.c8{fill:var(--c2);animation-name:c8}.c.c9{fill:var(--c4);animation-name:c9}.c.ca{fill:var(--c1);animation-name:ca}.c.cb,.c.cc{fill:var(--c4);animation-name:cb}.c.cc{animation-name:cc}.c.cd{fill:var(--c3);animation-name:cd}.c.ce{fill:var(--c1);animation-name:ce}.c.cf,.c.cg,.c.ch{fill:var(--c2);animation-name:cf}.c.cg,.c.ch{animation-name:cg}.c.ch{animation-name:ch}.c.ci{fill:var(--c1);animation-name:ci}.c.cj{fill:var(--c2);animation-name:cj}.c.ck,.c.cl{fill:var(--c4);animation-name:ck}.c.cl{animation-name:cl}.c.cm{fill:var(--c3);animation-name:cm}.c.cn{fill:var(--c4);animation-name:cn}.c.co{fill:var(--c3);animation-name:co}.c.cp,.c.cq{fill:var(--c1);animation-name:cp}.c.cq{animation-name:cq}.c.cr{fill:var(--c4);animation-name:cr}.c.cs,.c.ct,.c.cu{fill:var(--c1);animation-name:cs}.c.ct,.c.cu{animation-name:ct}.c.cu{animation-name:cu}.c.cv,.c.cw,.c.cx{fill:var(--c1);animation-name:cv}.c.cw,.c.cx{animation-name:cw}.c.cx{animation-name:cx}.s,.u{animation:none linear 20700ms infinite}.u,.u.u0{transform-origin:0 0}.u{transform:scale(0,1)}.u.u0{fill:var(--c1);animation-name:u0}.u.u1{fill:var(--c2);animation-name:u1;transform-origin:424px 0}.u.u2{fill:var(--c3);animation-name:u2;transform-origin:548.7px 0}.u.u3{fill:var(--c4);animation-name:u3;transform-origin:648.5px 0}.s{shape-rendering:geometricPrecision;fill:var(--cs)}.s.s0{transform:translate(0,-16px);animation-name:s0}.s.s1{transform:translate(16px,-16px);animation-name:s1}.s.s2{transform:translate(32px,-16px);animation-name:s2}.s.s3{transform:translate(48px,-16px);animation-name:s3}</style><rect class="c" x="2" y="2" rx="2" ry="2" width="12" height="12"/><rect class="c" x="2" y="18" rx="2" ry="2" width="12" height="12"/><rect class="c" x="2" y="34" rx="2" ry="2" width="12" height="12"/><rect class="c" x="2" y="50" rx="2" ry="2" width="12" height="12"/><rect class="c" x="2" y="66" rx="2" ry="2" width="12" height="12"/><rect class="c c0" x="2" y="82" rx="2" ry="2" width="12" height="12"/><rect class="c c1" x="2" y="98" rx="2" ry="2" width="12" height="12"/><rect class="c" x="18" y="2" rx="2" ry="2" width="12" height="12"/><rect class="c c2" x="18" y="18" rx="2" ry="2" width="12" height="12"/><rect class="c c3" x="18" y="34" rx="2" ry="2" width="12" height="12"/><rect class="c" x="18" y="50" rx="2" ry="2" width="12" height="12"/><rect class="c" x="18" y="66" rx="2" ry="2" width="12" height="12"/><rect class="c" x="18" y="82" rx="2" ry="2" width="12" height="12"/><rect class="c" x="18" y="98" rx="2" ry="2" width="12" height="12"/><rect class="c" x="34" y="2" rx="2" ry="2" width="12" height="12"/><rect class="c" x="34" y="18" rx="2" ry="2" width="12" height="12"/><rect class="c" x="34" y="34" rx="2" ry="2" width="12" height="12"/><rect class="c" x="34" y="50" rx="2" ry="2" width="12" height="12"/><rect class="c" x="34" y="66" rx="2" ry="2" width="12" height="12"/><rect class="c" x="34" y="82" rx="2" ry="2" width="12" height="12"/><rect class="c" x="34" y="98" rx="2" ry="2" width="12" height="12"/><rect class="c" x="50" y="2" rx="2" ry="2" width="12" height="12"/><rect class="c" x="50" y="18" rx="2" ry="2" width="12" height="12"/><rect class="c" x="50" y="34" rx="2" ry="2" width="12" height="12"/><rect class="c" x="50" y="50" rx="2" ry="2" width="12" height="12"/><rect class="c" x="50" y="66" rx="2" ry="2" width="12" height="12"/><rect class="c" x="50" y="82" rx="2" ry="2" width="12" height="12"/><rect class="c" x="50" y="98" rx="2" ry="2" width="12" height="12"/><rect class="c c4" x="66" y="2" rx="2" ry="2" width="12" height="12"/><rect class="c" x="66" y="18" rx="2" ry="2" width="12" height="12"/><rect class="c" x="66" y="34" rx="2" ry="2" width="12" height="12"/><rect class="c" x="66" y="50" rx="2" ry="2" width="12" height="12"/><rect class="c" x="66" y="66" rx="2" ry="2" width="12" height="12"/><rect class="c" x="66" y="82" rx="2" ry="2" width="12" height="12"/><rect class="c" x="66" y="98" rx="2" ry="2" width="12" height="12"/><rect class="c" x="82" y="2" rx="2" ry="2" width="12" height="12"/><rect class="c" x="82" y="18" rx="2" ry="2" width="12" height="12"/><rect class="c" x="82" y="34" rx="2" ry="2" width="12" height="12"/><rect class="c" x="82" y="50" rx="2" ry="2" width="12" height="12"/><rect class="c" x="82" y="66" rx="2" ry="2" width="12" height="12"/><rect class="c" x="82" y="82" rx="2" ry="2" width="12" height="12"/><rect class="c" x="82" y="98" rx="2" ry="2" width="12" height="12"/><rect class="c" x="98" y="2" rx="2" ry="2" width="12" height="12"/><rect class="c" x="98" y="18" rx="2" ry="2" width="12" height="12"/><rect class="c c5" x="98" y="34" rx="2" ry="2" width="12" height="12"/><rect class="c" x="98" y="50" rx="2" ry="2" width="12" height="12"/><rect class="c" x="98" y="66" rx="2" ry="2" width="12" height="12"/><rect class="c" x="98" y="82" rx="2" ry="2" width="12" height="12"/><rect class="c" x="98" y="98" rx="2" ry="2" width="12" height="12"/><rect class="c" x="114" y="2" rx="2" ry="2" width="12" height="12"/><rect class="c" x="114" y="18" rx="2" ry="2" width="12" height="12"/><rect class="c" x="114" y="34" rx="2" ry="2" width="12" height="12"/><rect class="c" x="114" y="50" rx="2" ry="2" width="12" height="12"/><rect class="c" x="114" y="66" rx="2" ry="2" width="12" height="12"/><rect class="c" x="114" y="82" rx="2" ry="2" width="12" height="12"/><rect class="c" x="114" y="98" rx="2" ry="2" width="12" height="12"/><rect class="c c6" x="130" y="2" rx="2" ry="2" width="12" height="12"/><rect class="c" x="130" y="18" rx="2" ry="2" width="12" height="12"/><rect class="c" x="130" y="34" rx="2" ry="2" width="12" height="12"/><rect class="c" x="130" y="50" rx="2" ry="2" width="12" height="12"/><rect class="c" x="130" y="66" rx="2" ry="2" width="12" height="12"/><rect class="c" x="130" y="82" rx="2" ry="2" width="12" height="12"/><rect class="c" x="130" y="98" rx="2" ry="2" width="12" height="12"/><rect class="c" x="146" y="2" rx="2" ry="2" width="12" height="12"/><rect class="c" x="146" y="18" rx="2" ry="2" width="12" height="12"/><rect class="c" x="146" y="34" rx="2" ry="2" width="12" height="12"/><rect class="c" x="146" y="50" rx="2" ry="2" width="12" height="12"/><rect class="c" x="146" y="66" rx="2" ry="2" width="12" height="12"/><rect class="c" x="146" y="82" rx="2" ry="2" width="12" height="12"/><rect class="c" x="146" y="98" rx="2" ry="2" width="12" height="12"/><rect class="c" x="162" y="2" rx="2" ry="2" width="12" height="12"/><rect class="c" x="162" y="18" rx="2" ry="2" width="12" height="12"/><rect class="c" x="162" y="34" rx="2" ry="2" width="12" height="12"/><rect class="c" x="162" y="50" rx="2" ry="2" width="12" height="12"/><rect class="c" x="162" y="66" rx="2" ry="2" width="12" height="12"/><rect class="c" x="162" y="82" rx="2" ry="2" width="12" height="12"/><rect class="c" x="162" y="98" rx="2" ry="2" width="12" height="12"/><rect class="c" x="178" y="2" rx="2" ry="2" width="12" height="12"/><rect class="c" x="178" y="18" rx="2" ry="2" width="12" height="12"/><rect class="c" x="178" y="34" rx="2" ry="2" width="12" height="12"/><rect class="c" x="178" y="50" rx="2" ry="2" width="12" height="12"/><rect class="c" x="178" y="66" rx="2" ry="2" width="12" height="12"/><rect class="c" x="178" y="82" rx="2" ry="2" width="12" height="12"/><rect class="c" x="178" y="98" rx="2" ry="2" width="12" height="12"/><rect class="c" x="194" y="2" rx="2" ry="2" width="12" height="12"/><rect class="c" x="194" y="18" rx="2" ry="2" width="12" height="12"/><rect class="c" x="194" y="34" rx="2" ry="2" width="12" height="12"/><rect class="c" x="194" y="50" rx="2" ry="2" width="12" height="12"/><rect class="c" x="194" y="66" rx="2" ry="2" width="12" height="12"/><rect class="c" x="194" y="82" rx="2" ry="2" width="12" height="12"/><rect class="c" x="194" y="98" rx="2" ry="2" width="12" height="12"/><rect class="c" x="210" y="2" rx="2" ry="2" width="12" height="12"/><rect class="c" x="210" y="18" rx="2" ry="2" width="12" height="12"/><rect class="c" x="210" y="34" rx="2" ry="2" width="12" height="12"/><rect class="c" x="210" y="50" rx="2" ry="2" width="12" height="12"/><rect class="c" x="210" y="66" rx="2" ry="2" width="12" height="12"/><rect class="c" x="210" y="82" rx="2" ry="2" width="12" height="12"/><rect class="c" x="210" y="98" rx="2" ry="2" width="12" height="12"/><rect class="c" x="226" y="2" rx="2" ry="2" width="12" height="12"/><rect class="c" x="226" y="18" rx="2" ry="2" width="12" height="12"/><rect class="c" x="226" y="34" rx="2" ry="2" width="12" height="12"/><rect class="c" x="226" y="50" rx="2" ry="2" width="12" height="12"/><rect class="c c7" x="226" y="66" rx="2" ry="2" width="12" height="12"/><rect class="c" x="226" y="82" rx="2" ry="2" width="12" height="12"/><rect class="c" x="226" y="98" rx="2" ry="2" width="12" height="12"/><rect class="c" x="242" y="2" rx="2" ry="2" width="12" height="12"/><rect class="c" x="242" y="18" rx="2" ry="2" width="12" height="12"/><rect class="c" x="242" y="34" rx="2" ry="2" width="12" height="12"/><rect class="c" x="242" y="50" rx="2" ry="2" width="12" height="12"/><rect class="c" x="242" y="66" rx="2" ry="2" width="12" height="12"/><rect class="c" x="242" y="82" rx="2" ry="2" width="12" height="12"/><rect class="c" x="242" y="98" rx="2" ry="2" width="12" height="12"/><rect class="c" x="258" y="2" rx="2" ry="2" width="12" height="12"/><rect class="c" x="258" y="18" rx="2" ry="2" width="12" height="12"/><rect class="c" x="258" y="34" rx="2" ry="2" width="12" height="12"/><rect class="c" x="258" y="50" rx="2" ry="2" width="12" height="12"/><rect class="c" x="258" y="66" rx="2" ry="2" width="12" height="12"/><rect class="c" x="258" y="82" rx="2" ry="2" width="12" height="12"/><rect class="c" x="258" y="98" rx="2" ry="2" width="12" height="12"/><rect class="c" x="274" y="2" rx="2" ry="2" width="12" height="12"/><rect class="c" x="274" y="18" rx="2" ry="2" width="12" height="12"/><rect class="c" x="274" y="34" rx="2" ry="2" width="12" height="12"/><rect class="c" x="274" y="50" rx="2" ry="2" width="12" height="12"/><rect class="c" x="274" y="66" rx="2" ry="2" width="12" height="12"/><rect class="c" x="274" y="82" rx="2" ry="2" width="12" height="12"/><rect class="c" x="274" y="98" rx="2" ry="2" width="12" height="12"/><rect class="c" x="290" y="2" rx="2" ry="2" width="12" height="12"/><rect class="c" x="290" y="18" rx="2" ry="2" width="12" height="12"/><rect class="c" x="290" y="34" rx="2" ry="2" width="12" height="12"/><rect class="c" x="290" y="50" rx="2" ry="2" width="12" height="12"/><rect class="c" x="290" y="66" rx="2" ry="2" width="12" height="12"/><rect class="c" x="290" y="82" rx="2" ry="2" width="12" height="12"/><rect class="c" x="290" y="98" rx="2" ry="2" width="12" height="12"/><rect class="c c8" x="306" y="2" rx="2" ry="2" width="12" height="12"/><rect class="c c9" x="306" y="18" rx="2" ry="2" width="12" height="12"/><rect class="c" x="306" y="34" rx="2" ry="2" width="12" height="12"/><rect class="c" x="306" y="50" rx="2" ry="2" width="12" height="12"/><rect class="c ca" x="306" y="66" rx="2" ry="2" width="12" height="12"/><rect class="c" x="306" y="82" rx="2" ry="2" width="12" height="12"/><rect class="c" x="306" y="98" rx="2" ry="2" width="12" height="12"/><rect class="c" x="322" y="2" rx="2" ry="2" width="12" height="12"/><rect class="c" x="322" y="18" rx="2" ry="2" width="12" height="12"/><rect class="c" x="322" y="34" rx="2" ry="2" width="12" height="12"/><rect class="c" x="322" y="50" rx="2" ry="2" width="12" height="12"/><rect class="c" x="322" y="66" rx="2" ry="2" width="12" height="12"/><rect class="c cb" x="322" y="82" rx="2" ry="2" width="12" height="12"/><rect class="c cc" x="322" y="98" rx="2" ry="2" width="12" height="12"/><rect class="c cd" x="338" y="2" rx="2" ry="2" width="12" height="12"/><rect class="c ce" x="338" y="18" rx="2" ry="2" width="12" height="12"/><rect class="c" x="338" y="34" rx="2" ry="2" width="12" height="12"/><rect class="c" x="338" y="50" rx="2" ry="2" width="12" height="12"/><rect class="c cf" x="338" y="66" rx="2" ry="2" width="12" height="12"/><rect class="c" x="338" y="82" rx="2" ry="2" width="12" height="12"/><rect class="c" x="338" y="98" rx="2" ry="2" width="12" height="12"/><rect class="c" x="354" y="2" rx="2" ry="2" width="12" height="12"/><rect class="c cg" x="354" y="18" rx="2" ry="2" width="12" height="12"/><rect class="c" x="354" y="34" rx="2" ry="2" width="12" height="12"/><rect class="c" x="354" y="50" rx="2" ry="2" width="12" height="12"/><rect class="c" x="354" y="66" rx="2" ry="2" width="12" height="12"/><rect class="c" x="354" y="82" rx="2" ry="2" width="12" height="12"/><rect class="c" x="354" y="98" rx="2" ry="2" width="12" height="12"/><rect class="c" x="370" y="2" rx="2" ry="2" width="12" height="12"/><rect class="c ch" x="370" y="18" rx="2" ry="2" width="12" height="12"/><rect class="c ci" x="370" y="34" rx="2" ry="2" width="12" height="12"/><rect class="c cj" x="370" y="50" rx="2" ry="2" width="12" height="12"/><rect class="c" x="370" y="66" rx="2" ry="2" width="12" height="12"/><rect class="c" x="370" y="82" rx="2" ry="2" width="12" height="12"/><rect class="c" x="370" y="98" rx="2" ry="2" width="12" height="12"/><rect class="c ck" x="386" y="2" rx="2" ry="2" width="12" height="12"/><rect class="c" x="386" y="18" rx="2" ry="2" width="12" height="12"/><rect class="c cl" x="386" y="34" rx="2" ry="2" width="12" height="12"/><rect class="c cm" x="386" y="50" rx="2" ry="2" width="12" height="12"/><rect class="c cn" x="386" y="66" rx="2" ry="2" width="12" height="12"/><rect class="c co" x="386" y="82" rx="2" ry="2" width="12" height="12"/><rect class="c cp" x="386" y="98" rx="2" ry="2" width="12" height="12"/><rect class="c" x="402" y="2" rx="2" ry="2" width="12" height="12"/><rect class="c" x="402" y="18" rx="2" ry="2" width="12" height="12"/><rect class="c" x="402" y="34" rx="2" ry="2" width="12" height="12"/><rect class="c cq" x="402" y="50" rx="2" ry="2" width="12" height="12"/><rect class="c" x="402" y="66" rx="2" ry="2" width="12" height="12"/><rect class="c" x="402" y="82" rx="2" ry="2" width="12" height="12"/><rect class="c" x="402" y="98" rx="2" ry="2" width="12" height="12"/><rect class="c cr" x="418" y="2" rx="2" ry="2" width="12" height="12"/><rect class="c" x="418" y="18" rx="2" ry="2" width="12" height="12"/><rect class="c cs" x="418" y="34" rx="2" ry="2" width="12" height="12"/><rect class="c" x="418" y="50" rx="2" ry="2" width="12" height="12"/><rect class="c ct" x="418" y="66" rx="2" ry="2" width="12" height="12"/><rect class="c" x="418" y="82" rx="2" ry="2" width="12" height="12"/><rect class="c cu" x="418" y="98" rx="2" ry="2" width="12" height="12"/><rect class="c" x="434" y="2" rx="2" ry="2" width="12" height="12"/><rect class="c" x="434" y="18" rx="2" ry="2" width="12" height="12"/><rect class="c" x="434" y="34" rx="2" ry="2" width="12" height="12"/><rect class="c" x="434" y="50" rx="2" ry="2" width="12" height="12"/><rect class="c" x="434" y="66" rx="2" ry="2" width="12" height="12"/><rect class="c" x="434" y="82" rx="2" ry="2" width="12" height="12"/><rect class="c" x="434" y="98" rx="2" ry="2" width="12" height="12"/><rect class="c" x="450" y="2" rx="2" ry="2" width="12" height="12"/><rect class="c" x="450" y="18" rx="2" ry="2" width="12" height="12"/><rect class="c" x="450" y="34" rx="2" ry="2" width="12" height="12"/><rect class="c" x="450" y="50" rx="2" ry="2" width="12" height="12"/><rect class="c" x="450" y="66" rx="2" ry="2" width="12" height="12"/><rect class="c" x="450" y="82" rx="2" ry="2" width="12" height="12"/><rect class="c" x="450" y="98" rx="2" ry="2" width="12" height="12"/><rect class="c" x="466" y="2" rx="2" ry="2" width="12" height="12"/><rect class="c" x="466" y="18" rx="2" ry="2" width="12" height="12"/><rect class="c" x="466" y="34" rx="2" ry="2" width="12" height="12"/><rect class="c" x="466" y="50" rx="2" ry="2" width="12" height="12"/><rect class="c" x="466" y="66" rx="2" ry="2" width="12" height="12"/><rect class="c" x="466" y="82" rx="2" ry="2" width="12" height="12"/><rect class="c" x="466" y="98" rx="2" ry="2" width="12" height="12"/><rect class="c" x="482" y="2" rx="2" ry="2" width="12" height="12"/><rect class="c cv" x="482" y="18" rx="2" ry="2" width="12" height="12"/><rect class="c" x="482" y="34" rx="2" ry="2" width="12" height="12"/><rect class="c" x="482" y="50" rx="2" ry="2" width="12" height="12"/><rect class="c" x="482" y="66" rx="2" ry="2" width="12" height="12"/><rect class="c" x="482" y="82" rx="2" ry="2" width="12" height="12"/><rect class="c" x="482" y="98" rx="2" ry="2" width="12" height="12"/><rect class="c" x="498" y="2" rx="2" ry="2" width="12" height="12"/><rect class="c" x="498" y="18" rx="2" ry="2" width="12" height="12"/><rect class="c" x="498" y="34" rx="2" ry="2" width="12" height="12"/><rect class="c cw" x="498" y="50" rx="2" ry="2" width="12" height="12"/><rect class="c cx" x="498" y="66" rx="2" ry="2" width="12" height="12"/><rect class="c" x="498" y="82" rx="2" ry="2" width="12" height="12"/><rect class="c" x="498" y="98" rx="2" ry="2" width="12" height="12"/><rect class="c" x="514" y="2" rx="2" ry="2" width="12" height="12"/><rect class="c" x="514" y="18" rx="2" ry="2" width="12" height="12"/><rect class="c" x="514" y="34" rx="2" ry="2" width="12" height="12"/><rect class="c" x="514" y="50" rx="2" ry="2" width="12" height="12"/><rect class="c" x="514" y="66" rx="2" ry="2" width="12" height="12"/><rect class="c" x="514" y="82" rx="2" ry="2" width="12" height="12"/><rect class="c" x="514" y="98" rx="2" ry="2" width="12" height="12"/><rect class="c" x="530" y="2" rx="2" ry="2" width="12" height="12"/><rect class="c" x="530" y="18" rx="2" ry="2" width="12" height="12"/><rect class="c" x="530" y="34" rx="2" ry="2" width="12" height="12"/><rect class="c" x="530" y="50" rx="2" ry="2" width="12" height="12"/><rect class="c" x="530" y="66" rx="2" ry="2" width="12" height="12"/><rect class="c" x="530" y="82" rx="2" ry="2" width="12" height="12"/><rect class="c" x="530" y="98" rx="2" ry="2" width="12" height="12"/><rect class="c" x="546" y="2" rx="2" ry="2" width="12" height="12"/><rect class="c" x="546" y="18" rx="2" ry="2" width="12" height="12"/><rect class="c" x="546" y="34" rx="2" ry="2" width="12" height="12"/><rect class="c" x="546" y="50" rx="2" ry="2" width="12" height="12"/><rect class="c" x="546" y="66" rx="2" ry="2" width="12" height="12"/><rect class="c" x="546" y="82" rx="2" ry="2" width="12" height="12"/><rect class="c" x="546" y="98" rx="2" ry="2" width="12" height="12"/><rect class="c" x="562" y="2" rx="2" ry="2" width="12" height="12"/><rect class="c" x="562" y="18" rx="2" ry="2" width="12" height="12"/><rect class="c" x="562" y="34" rx="2" ry="2" width="12" height="12"/><rect class="c" x="562" y="50" rx="2" ry="2" width="12" height="12"/><rect class="c" x="562" y="66" rx="2" ry="2" width="12" height="12"/><rect class="c" x="562" y="82" rx="2" ry="2" width="12" height="12"/><rect class="c" x="562" y="98" rx="2" ry="2" width="12" height="12"/><rect class="c" x="578" y="2" rx="2" ry="2" width="12" height="12"/><rect class="c" x="578" y="18" rx="2" ry="2" width="12" height="12"/><rect class="c" x="578" y="34" rx="2" ry="2" width="12" height="12"/><rect class="c" x="578" y="50" rx="2" ry="2" width="12" height="12"/><rect class="c" x="578" y="66" rx="2" ry="2" width="12" height="12"/><rect class="c" x="578" y="82" rx="2" ry="2" width="12" height="12"/><rect class="c" x="578" y="98" rx="2" ry="2" width="12" height="12"/><rect class="c" x="594" y="2" rx="2" ry="2" width="12" height="12"/><rect class="c" x="594" y="18" rx="2" ry="2" width="12" height="12"/><rect class="c" x="594" y="34" rx="2" ry="2" width="12" height="12"/><rect class="c" x="594" y="50" rx="2" ry="2" width="12" height="12"/><rect class="c" x="594" y="66" rx="2" ry="2" width="12" height="12"/><rect class="c" x="594" y="82" rx="2" ry="2" width="12" height="12"/><rect class="c" x="594" y="98" rx="2" ry="2" width="12" height="12"/><rect class="c" x="610" y="2" rx="2" ry="2" width="12" height="12"/><rect class="c" x="610" y="18" rx="2" ry="2" width="12" height="12"/><rect class="c" x="610" y="34" rx="2" ry="2" width="12" height="12"/><rect class="c" x="610" y="50" rx="2" ry="2" width="12" height="12"/><rect class="c" x="610" y="66" rx="2" ry="2" width="12" height="12"/><rect class="c" x="610" y="82" rx="2" ry="2" width="12" height="12"/><rect class="c" x="610" y="98" rx="2" ry="2" width="12" height="12"/><rect class="c" x="626" y="2" rx="2" ry="2" width="12" height="12"/><rect class="c" x="626" y="18" rx="2" ry="2" width="12" height="12"/><rect class="c" x="626" y="34" rx="2" ry="2" width="12" height="12"/><rect class="c" x="626" y="50" rx="2" ry="2" width="12" height="12"/><rect class="c" x="626" y="66" rx="2" ry="2" width="12" height="12"/><rect class="c" x="626" y="82" rx="2" ry="2" width="12" height="12"/><rect class="c" x="626" y="98" rx="2" ry="2" width="12" height="12"/><rect class="c" x="642" y="2" rx="2" ry="2" width="12" height="12"/><rect class="c" x="642" y="18" rx="2" ry="2" width="12" height="12"/><rect class="c" x="642" y="34" rx="2" ry="2" width="12" height="12"/><rect class="c" x="642" y="50" rx="2" ry="2" width="12" height="12"/><rect class="c" x="642" y="66" rx="2" ry="2" width="12" height="12"/><rect class="c" x="642" y="82" rx="2" ry="2" width="12" height="12"/><rect class="c" x="642" y="98" rx="2" ry="2" width="12" height="12"/><rect class="c" x="658" y="2" rx="2" ry="2" width="12" height="12"/><rect class="c" x="658" y="18" rx="2" ry="2" width="12" height="12"/><rect class="c" x="658" y="34" rx="2" ry="2" width="12" height="12"/><rect class="c" x="658" y="50" rx="2" ry="2" width="12" height="12"/><rect class="c" x="658" y="66" rx="2" ry="2" width="12" height="12"/><rect class="c" x="658" y="82" rx="2" ry="2" width="12" height="12"/><rect class="c" x="658" y="98" rx="2" ry="2" width="12" height="12"/><rect class="c" x="674" y="2" rx="2" ry="2" width="12" height="12"/><rect class="c" x="674" y="18" rx="2" ry="2" width="12" height="12"/><rect class="c" x="674" y="34" rx="2" ry="2" width="12" height="12"/><rect class="c" x="674" y="50" rx="2" ry="2" width="12" height="12"/><rect class="c" x="674" y="66" rx="2" ry="2" width="12" height="12"/><rect class="c" x="674" y="82" rx="2" ry="2" width="12" height="12"/><rect class="c" x="674" y="98" rx="2" ry="2" width="12" height="12"/><rect class="c" x="690" y="2" rx="2" ry="2" width="12" height="12"/><rect class="c" x="690" y="18" rx="2" ry="2" width="12" height="12"/><rect class="c" x="690" y="34" rx="2" ry="2" width="12" height="12"/><rect class="c" x="690" y="50" rx="2" ry="2" width="12" height="12"/><rect class="c" x="690" y="66" rx="2" ry="2" width="12" height="12"/><rect class="c" x="690" y="82" rx="2" ry="2" width="12" height="12"/><rect class="c" x="690" y="98" rx="2" ry="2" width="12" height="12"/><rect class="c" x="706" y="2" rx="2" ry="2" width="12" height="12"/><rect class="c" x="706" y="18" rx="2" ry="2" width="12" height="12"/><rect class="c" x="706" y="34" rx="2" ry="2" width="12" height="12"/><rect class="c" x="706" y="50" rx="2" ry="2" width="12" height="12"/><rect class="c" x="706" y="66" rx="2" ry="2" width="12" height="12"/><rect class="c" x="706" y="82" rx="2" ry="2" width="12" height="12"/><rect class="c" x="706" y="98" rx="2" ry="2" width="12" height="12"/><rect class="c" x="722" y="2" rx="2" ry="2" width="12" height="12"/><rect class="c" x="722" y="18" rx="2" ry="2" width="12" height="12"/><rect class="c" x="722" y="34" rx="2" ry="2" width="12" height="12"/><rect class="c" x="722" y="50" rx="2" ry="2" width="12" height="12"/><rect class="c" x="722" y="66" rx="2" ry="2" width="12" height="12"/><rect class="c" x="722" y="82" rx="2" ry="2" width="12" height="12"/><rect class="c" x="722" y="98" rx="2" ry="2" width="12" height="12"/><rect class="c" x="738" y="2" rx="2" ry="2" width="12" height="12"/><rect class="c" x="738" y="18" rx="2" ry="2" width="12" height="12"/><rect class="c" x="738" y="34" rx="2" ry="2" width="12" height="12"/><rect class="c" x="738" y="50" rx="2" ry="2" width="12" height="12"/><rect class="c" x="738" y="66" rx="2" ry="2" width="12" height="12"/><rect class="c" x="738" y="82" rx="2" ry="2" width="12" height="12"/><rect class="c" x="738" y="98" rx="2" ry="2" width="12" height="12"/><rect class="c" x="754" y="2" rx="2" ry="2" width="12" height="12"/><rect class="c" x="754" y="18" rx="2" ry="2" width="12" height="12"/><rect class="c" x="754" y="34" rx="2" ry="2" width="12" height="12"/><rect class="c" x="754" y="50" rx="2" ry="2" width="12" height="12"/><rect class="c" x="754" y="66" rx="2" ry="2" width="12" height="12"/><rect class="c" x="754" y="82" rx="2" ry="2" width="12" height="12"/><rect class="c" x="754" y="98" rx="2" ry="2" width="12" height="12"/><rect class="c" x="770" y="2" rx="2" ry="2" width="12" height="12"/><rect class="c" x="770" y="18" rx="2" ry="2" width="12" height="12"/><rect class="c" x="770" y="34" rx="2" ry="2" width="12" height="12"/><rect class="c" x="770" y="50" rx="2" ry="2" width="12" height="12"/><rect class="c" x="770" y="66" rx="2" ry="2" width="12" height="12"/><rect class="c" x="770" y="82" rx="2" ry="2" width="12" height="12"/><rect class="c" x="770" y="98" rx="2" ry="2" width="12" height="12"/><rect class="c" x="786" y="2" rx="2" ry="2" width="12" height="12"/><rect class="c" x="786" y="18" rx="2" ry="2" width="12" height="12"/><rect class="c" x="786" y="34" rx="2" ry="2" width="12" height="12"/><rect class="c" x="786" y="50" rx="2" ry="2" width="12" height="12"/><rect class="c" x="786" y="66" rx="2" ry="2" width="12" height="12"/><rect class="c" x="786" y="82" rx="2" ry="2" width="12" height="12"/><rect class="c" x="786" y="98" rx="2" ry="2" width="12" height="12"/><rect class="c" x="802" y="2" rx="2" ry="2" width="12" height="12"/><rect class="c" x="802" y="18" rx="2" ry="2" width="12" height="12"/><rect class="c" x="802" y="34" rx="2" ry="2" width="12" height="12"/><rect class="c" x="802" y="50" rx="2" ry="2" width="12" height="12"/><rect class="c" x="802" y="66" rx="2" ry="2" width="12" height="12"/><rect class="c" x="802" y="82" rx="2" ry="2" width="12" height="12"/><rect class="c" x="802" y="98" rx="2" ry="2" width="12" height="12"/><rect class="c" x="818" y="2" rx="2" ry="2" width="12" height="12"/><rect class="c" x="818" y="18" rx="2" ry="2" width="12" height="12"/><rect class="c" x="818" y="34" rx="2" ry="2" width="12" height="12"/><rect class="c" x="818" y="50" rx="2" ry="2" width="12" height="12"/><rect class="c" x="818" y="66" rx="2" ry="2" width="12" height="12"/><rect class="c" x="818" y="82" rx="2" ry="2" width="12" height="12"/><rect class="c" x="818" y="98" rx="2" ry="2" width="12" height="12"/><rect class="c" x="834" y="2" rx="2" ry="2" width="12" height="12"/><rect class="c" x="834" y="18" rx="2" ry="2" width="12" height="12"/><rect class="c" x="834" y="34" rx="2" ry="2" width="12" height="12"/><rect class="c" x="834" y="50" rx="2" ry="2" width="12" height="12"/><rect class="u u0" height="12" width="424.6" x="0.0" y="144"/><rect class="u u1" height="12" width="125.3" x="424.0" y="144"/><rect class="u u2" height="12" width="100.4" x="548.7" y="144"/><rect class="u u3" height="12" width="200.1" x="648.5" y="144"/><rect class="s s0" x="0.8" y="0.8" width="14.4" height="14.4" rx="4.5" ry="4.5"/><rect class="s s1" x="1.8" y="1.8" width="12.3" height="12.3" rx="4.1" ry="4.1"/><rect class="s s2" x="2.6" y="2.6" width="10.8" height="10.8" rx="3.6" ry="3.6"/><rect class="s s3" x="3.0" y="3.0" width="9.9" height="9.9" rx="3.3" ry="3.3"/></svg>